<?xml version="1.0" encoding="utf-8"?><svg viewBox="0 0 38 20" xmlns="http://www.w3.org/2000/svg" xmlns:xlink="http://www.w3.org/1999/xlink"><style>:root>svg{display:none}:root>svg:target{display:block}</style><svg fill="none" viewBox="0 0 38 16" id="arrow" xmlns="http://www.w3.org/2000/svg"><path d="M37.707 8.707a1 1 0 000-1.414L31.343.929a1 1 0 10-1.414 1.414L35.586 8l-5.657 5.657a1 1 0 001.414 1.414l6.364-6.364zM0 9h37V7H0v2z" fill="currentColor"/></svg><svg fill="none" viewBox="0 0 11 20" id="fb" xmlns="http://www.w3.org/2000/svg"><path d="M8.237 3.32h1.826V.14C9.748.098 8.664 0 7.402 0 4.768 0 2.964 1.656 2.964 4.7v2.8H.057v3.555h2.907V20h3.563v-8.944h2.79L9.758 7.5H6.527V5.05c0-1.027.277-1.73 1.71-1.73z" fill="currentColor"/></svg><svg fill="none" viewBox="0 0 19 19" id="in" xmlns="http://www.w3.org/2000/svg"><path d="M17.18.313H1.837C1 .313.267.914.267 1.742v15.37c0 .832.732 1.575 1.57 1.575h15.339c.843 0 1.475-.747 1.475-1.575V1.743c.005-.828-.632-1.43-1.47-1.43zM5.965 15.629H3.331V7.444h2.634v8.185zm-1.226-9.43H4.72c-.843 0-1.388-.626-1.388-1.411 0-.8.56-1.412 1.422-1.412.861 0 1.389.608 1.408 1.412 0 .785-.547 1.412-1.423 1.412zm10.852 9.43h-2.634v-4.475c0-1.072-.383-1.805-1.336-1.805-.728 0-1.16.492-1.35.972-.073.172-.092.407-.092.646v4.662H7.545V7.444h2.634v1.14c.383-.546.982-1.331 2.375-1.331 1.73 0 3.037 1.139 3.037 3.594v4.782z" fill="currentColor"/></svg><svg fill="none" viewBox="0 0 20 16" id="tw" xmlns="http://www.w3.org/2000/svg"><path d="M19.312 2.277a7.89 7.89 0 01-2.21.598A3.81 3.81 0 0018.794.781a7.73 7.73 0 01-2.445.918A3.875 3.875 0 0013.54.5C11.412.5 9.69 2.195 9.69 4.285c-.001.29.032.58.1.863a10.975 10.975 0 01-7.934-3.957 3.736 3.736 0 00-.524 1.903c0 1.312.686 2.472 1.72 3.152a3.812 3.812 0 01-1.75-.473v.047c0 1.836 1.329 3.364 3.088 3.711a3.94 3.94 0 01-1.014.133 3.69 3.69 0 01-.724-.07c.49 1.504 1.912 2.597 3.598 2.629a7.803 7.803 0 01-5.7 1.566A10.896 10.896 0 006.444 15.5c7.088 0 10.96-5.77 10.96-10.773 0-.165-.004-.329-.012-.489a7.755 7.755 0 001.92-1.96z" fill="currentColor"/></svg></svg>