<svg width="58" height="58" viewBox="0 0 58 58" fill="none" xmlns="http://www.w3.org/2000/svg">
<g clip-path="url(#clip0)">
<path d="M40.2021 26.1518C36.5274 26.1518 36.0188 29.8138 36.0188 29.8138H43.8259C43.8259 29.8138 43.8768 26.1518 40.2021 26.1518ZM22.4898 29.8138H15.5727V36.1714H22.1464C23.1382 36.146 24.9947 35.8662 24.9947 33.0816C24.9947 29.7756 22.4898 29.8138 22.4898 29.8138Z" fill="#E2DCC8"/>
<path d="M29 0.517822C13.2712 0.517822 0.517853 13.2712 0.517853 29C0.517853 44.7287 13.2712 57.4821 29 57.4821C44.7287 57.4821 57.4821 44.7287 57.4821 29C57.4821 13.2712 44.7287 0.517822 29 0.517822ZM35.0016 18.014H44.805V20.9385H35.0016V18.014ZM30.0426 33.374C30.0426 40.6217 22.4898 40.3928 22.4898 40.3928H10.1306V16.6153H22.4898C26.2535 16.6153 29.2162 18.6879 29.2162 22.9475C29.2162 27.2071 25.5923 27.4741 25.5923 27.4741C30.3732 27.4741 30.0426 33.374 30.0426 33.374ZM48.378 32.9798H36.057C36.057 37.392 40.2403 37.1123 40.2403 37.1123C44.1947 37.1123 44.0548 34.5565 44.0548 34.5565H48.2382C48.2382 41.3465 40.1004 40.876 40.1004 40.876C30.3478 40.876 30.9709 31.7846 30.9709 31.7846C30.9709 31.7846 30.9581 22.6551 40.1004 22.6551C49.7258 22.6678 48.378 32.9798 48.378 32.9798Z" fill="#E2DCC8"/>
<path d="M24.1682 23.3163C24.1682 20.8495 22.4898 20.8495 22.4898 20.8495H15.5727V26.1518H22.0574C23.1764 26.1518 24.1682 25.7831 24.1682 23.3163Z" fill="#E2DCC8"/>
</g>
<defs>
<clipPath id="clip0">
<rect width="58" height="58" fill="white"/>
</clipPath>
</defs>
</svg>
