<svg width="58" height="58" viewBox="0 0 58 58" fill="none" xmlns="http://www.w3.org/2000/svg">
<g clip-path="url(#clip0)">
<path d="M53.3613 0H4.95589C2.31094 0 0 1.90312 0 4.51701V53.0299C0 55.658 2.31094 58 4.95589 58H53.3471C56.0062 58 58 55.6425 58 53.0299V4.51701C58.0155 1.90312 56.0063 0 53.3613 0ZM17.9787 48.3458H9.66969V22.5112H17.9787V48.3458ZM14.1116 18.5833H14.0521C11.3929 18.5833 9.67098 16.6038 9.67098 14.1258C9.67098 11.6026 11.4382 9.66969 14.1569 9.66969C16.8757 9.66969 18.5393 11.5883 18.5988 14.1258C18.5975 16.6038 16.8757 18.5833 14.1116 18.5833ZM48.3458 48.3458H40.0368V34.22C40.0368 30.8358 38.8276 28.5236 35.8215 28.5236C33.5248 28.5236 32.1654 30.0771 31.5608 31.5906C31.3342 32.1343 31.2734 32.8749 31.2734 33.6309V48.3458H22.9644V22.5112H31.2734V26.1065C32.4826 24.3846 34.3715 21.9067 38.7668 21.9067C44.2211 21.9067 48.3471 25.5019 48.3471 33.2529L48.3458 48.3458Z" fill="#E2DCC8"/>
</g>
<defs>
<clipPath id="clip0">
<rect width="58" height="58" fill="white"/>
</clipPath>
</defs>
</svg>
