<svg width="58" height="47" viewBox="0 0 58 47" fill="none" xmlns="http://www.w3.org/2000/svg">
<path d="M58 5.47247C55.8243 6.41343 53.5224 7.03336 51.1669 7.31265C53.6423 5.86983 55.504 3.57764 56.4026 0.86599C54.0622 2.2282 51.5059 3.18399 48.8433 3.69242C47.722 2.52279 46.3736 1.59233 44.8798 0.957572C43.3861 0.322817 41.7783 -0.00296754 40.1541 2.03676e-05C33.5784 2.03676e-05 28.2569 5.21989 28.2569 11.6545C28.2522 12.5496 28.3553 13.4419 28.5638 14.3126C23.8485 14.0925 19.2313 12.8952 15.0075 10.7973C10.7837 8.69932 7.04638 5.74688 4.03463 2.12886C2.97803 3.90184 2.41924 5.92475 2.41667 7.98618C2.41667 12.0274 4.53487 15.5995 7.73333 17.6923C5.83834 17.6475 3.98217 17.1483 2.32242 16.2369V16.3813C2.32242 22.0341 6.43075 26.7368 11.8682 27.8073C10.8457 28.0786 9.79205 28.216 8.73383 28.2162C7.98295 28.2175 7.23377 28.145 6.49721 27.9997C8.00883 32.6302 12.4084 35.9979 17.6199 36.0941C13.3852 39.3426 8.186 41.0984 2.83958 41.0855C1.89058 41.0841 0.942458 41.0278 0 40.9171C5.43893 44.374 11.7612 46.2025 18.2144 46.1851C40.1287 46.1851 52.1009 28.4207 52.1009 13.0136C52.1009 12.5085 52.0876 12.0033 52.0635 11.5102C54.3872 9.86493 56.3975 7.82034 58 5.47247Z" fill="#E2DCC8"/>
</svg>
