<svg width="19" height="19" viewBox="0 0 19 19" fill="none" xmlns="http://www.w3.org/2000/svg">
<path d="M17.1804 0.3125H1.83713C0.998745 0.3125 0.266235 0.91543 0.266235 1.74354V17.1129C0.266235 17.9455 0.998745 18.6875 1.83713 18.6875H17.1759C18.0188 18.6875 18.6508 17.9406 18.6508 17.1129V1.74354C18.6557 0.91543 18.0188 0.3125 17.1804 0.3125ZM5.96504 15.629H3.33129V7.4443H5.96504V15.629ZM4.73926 6.19988H4.72039C3.87749 6.19988 3.3317 5.57275 3.3317 4.78771C3.3317 3.98832 3.89185 3.37596 4.75363 3.37596C5.6154 3.37596 6.14273 3.98381 6.1616 4.78771C6.16119 5.57275 5.6154 6.19988 4.73926 6.19988ZM15.5907 15.629H12.9569V11.1538C12.9569 10.0816 12.5736 9.34906 11.6207 9.34906C10.8928 9.34906 10.4619 9.84125 10.2702 10.3207C10.1984 10.493 10.1791 10.7276 10.1791 10.9671V15.629H7.54537V7.4443H10.1791V8.5833C10.5624 8.03779 11.1611 7.25275 12.5543 7.25275C14.2832 7.25275 15.5911 8.39176 15.5911 10.8474L15.5907 15.629Z" fill="currentColor"/>
</svg>
