<svg width="20" height="16" viewBox="0 0 20 16" fill="none" xmlns="http://www.w3.org/2000/svg">
<path d="M19.3116 2.27735C18.6079 2.58296 17.8633 2.78429 17.1014 2.875C17.9021 2.4064 18.5043 1.66195 18.7949 0.781256C18.0379 1.22367 17.2111 1.5341 16.3499 1.69922C15.9872 1.31935 15.5511 1.01716 15.0679 0.811C14.5848 0.604845 14.0648 0.499036 13.5394 0.500007C11.4125 0.500007 9.69134 2.19532 9.69134 4.28516C9.68983 4.57585 9.72316 4.86567 9.79061 5.14844C8.26548 5.07698 6.77206 4.68812 5.4059 4.00674C4.03974 3.32537 2.83093 2.36647 1.85679 1.19141C1.51504 1.76724 1.33431 2.42424 1.33348 3.09375C1.33348 4.40625 2.0186 5.56641 3.05312 6.2461C2.4402 6.23156 1.83983 6.06942 1.30299 5.77344V5.82031C1.30299 7.65625 2.63181 9.18359 4.39054 9.53125C4.05981 9.61937 3.719 9.66401 3.37673 9.66406C3.13386 9.66449 2.89154 9.64093 2.6533 9.59375C3.14223 11.0977 4.56524 12.1914 6.25088 12.2227C4.88117 13.2777 3.19953 13.8479 1.47027 13.8437C1.16332 13.8433 0.856652 13.825 0.551819 13.7891C2.31101 14.9118 4.35593 15.5057 6.44317 15.5C13.5312 15.5 17.4036 9.73047 17.4036 4.72657C17.4036 4.5625 17.3993 4.39844 17.3914 4.23828C18.143 3.70393 18.7933 3.03989 19.3116 2.27735Z" fill="currentColor"/>
</svg>
